<svg id="garage" version="1.1" xmlns="http://www.w3.org/2000/svg"
     x="0px"
     y="0px"
     viewBox="0 0 175.096 175.096" xml:space="preserve"> <path
                                                               d="M140.43,172.248h-7.583c-3.078,0-5.583-2.505-5.583-5.583v-10.542H47.833v10.542 c0,3.079-2.505,5.583-5.584,5.583h-7.583c-3.078,0-5.583-2.505-5.583-5.583v-10.542h-6.534c-1.381,0-2.5-1.119-2.5-2.5v-18.417 c0-1.381,1.119-2.5,2.5-2.5h2.833v-24.542c0-7.398,6.019-13.417,13.417-13.417h2.5l4.579-27.699 c-0.001-0.017-0.001-0.034-0.001-0.051c0-5.928,4.822-10.75,10.75-10.75h61.843c5.928,0,10.75,4.822,10.75,10.75 c0,0.017,0,0.034-0.001,0.051l4.579,27.699h2.501c7.397,0,13.416,6.019,13.416,13.417v24.542h2.834c1.381,0,2.5,1.119,2.5,2.5 v18.417c0,1.381-1.119,2.5-2.5,2.5h-6.534v10.542C146.014,169.743,143.51,172.248,140.43,172.248z M132.264,156.123v10.542 c0,0.322,0.262,0.583,0.583,0.583h7.583c0.322,0,0.584-0.262,0.584-0.583v-10.542H132.264z M34.083,156.123v10.542 c0,0.322,0.262,0.583,0.583,0.583h7.583c0.322,0,0.584-0.262,0.584-0.583v-10.542H34.083z M143.514,151.123h6.534v-13.417h-125 v13.417H143.514z M115.674,132.706h29.041v-24.542c0-4.641-3.775-8.417-8.416-8.417h-97.5c-4.642,0-8.417,3.775-8.417,8.417v24.542 h29.042v-25.919c0-1.381,1.119-2.5,2.5-2.5s2.5,1.119,2.5,2.5v25.919h5.25v-25.919c0-1.381,1.119-2.5,2.5-2.5s2.5,1.119,2.5,2.5 v25.919h5.25v-25.919c0-1.381,1.119-2.5,2.5-2.5s2.5,1.119,2.5,2.5v25.919h5.25v-25.919c0-1.381,1.119-2.5,2.5-2.5 s2.5,1.119,2.5,2.5v25.919h5.25v-25.919c0-1.381,1.119-2.5,2.5-2.5s2.5,1.119,2.5,2.5v25.919h5.25v-25.919 c0-1.381,1.119-2.5,2.5-2.5s2.5,1.119,2.5,2.5V132.706z M46.367,94.748h82.362l-4.174-25.25H50.541L46.367,94.748z M51.449,64.498 h72.198c-0.932-1.922-2.902-3.25-5.178-3.25H56.627C54.351,61.248,52.381,62.576,51.449,64.498z M131.677,121.537 c-4.756,0-8.625-3.869-8.625-8.625s3.869-8.625,8.625-8.625s8.625,3.869,8.625,8.625S136.432,121.537,131.677,121.537z M131.677,109.287c-1.999,0-3.625,1.626-3.625,3.625s1.626,3.625,3.625,3.625s3.625-1.626,3.625-3.625 S133.676,109.287,131.677,109.287z M43.42,121.537c-4.756,0-8.625-3.869-8.625-8.625s3.869-8.625,8.625-8.625 s8.625,3.869,8.625,8.625S48.176,121.537,43.42,121.537z M43.42,109.287c-1.999,0-3.625,1.626-3.625,3.625s1.626,3.625,3.625,3.625 s3.625-1.626,3.625-3.625S45.419,109.287,43.42,109.287z M172.594,57.35c-0.428,0-0.86-0.109-1.256-0.34L87.549,8.242L3.759,57.01 C2.567,57.703,1.036,57.3,0.34,56.107c-0.694-1.193-0.29-2.724,0.903-3.418L86.249,3.213c0.088-0.054,0.179-0.102,0.272-0.144 c0.33-0.149,0.68-0.221,1.025-0.221c0.001,0,0.003,0,0.005,0c0.344,0,0.691,0.071,1.021,0.219c0.095,0.042,0.188,0.091,0.276,0.146 l85.005,49.475c1.193,0.694,1.598,2.225,0.903,3.418C174.292,56.904,173.454,57.35,172.594,57.35z"></path>
  <g> </g>
  <g> </g>
  <g> </g>
  <g> </g>
  <g> </g>
  <g> </g>
  <g> </g>
  <g> </g>
  <g> </g>
  <g> </g>
  <g> </g>
  <g> </g>
  <g> </g>
  <g> </g>
  <g> </g> </svg>
