<?xml version="1.0" encoding="iso-8859-1"?>
<!-- Generator: Adobe Illustrator 16.0.0, SVG Export Plug-In . SVG Version: 6.00 Build 0)  -->
<!DOCTYPE svg PUBLIC "-//W3C//DTD SVG 1.1//EN" "http://www.w3.org/Graphics/SVG/1.1/DTD/svg11.dtd">
<svg version="1.1" id="Capa_1" xmlns="http://www.w3.org/2000/svg" xmlns:xlink="http://www.w3.org/1999/xlink" x="0px" y="0px"
	 width="49.979px" height="49.979px" viewBox="0 0 49.979 49.979"
	 xml:space="preserve">
<g>
	<path d="M25.276,0L12.665,9.877h3.328v15.137h5.038v2.271h1.271v20.469l1.844,1.207V27.285h0.636v22.058l0.73,0.636l3.401-3.369
		v-1.334l-1.018-0.381l1.018-0.765v-0.698l-2.225-1.779l1.906-2.034l-0.699-0.89l0.699-0.572v-0.954l-1.336-1.461l0.637-1.398
		l-1.207-1.082v-1.397l1.906-1.779v-2.797h1.397v-2.271h4.565V9.877h2.756L25.276,0z M20.033,11.94h4.56v4.146h-4.56V11.94z
		 M20.033,17.136h4.56v4.146h-4.56V17.136z M30.418,21.281h-4.56v-4.146h4.56V21.281z M30.418,16.087h-4.56V11.94h4.56V16.087z"/>
</g>
<g>
</g>
<g>
</g>
<g>
</g>
<g>
</g>
<g>
</g>
<g>
</g>
<g>
</g>
<g>
</g>
<g>
</g>
<g>
</g>
<g>
</g>
<g>
</g>
<g>
</g>
<g>
</g>
<g>
</g>
</svg>
